<svg width="256" height="256" viewBox="0 0 256 256" fill="none" xmlns="http://www.w3.org/2000/svg">
<path d="M70 152.033H45.1536V223H24.6075V152.033H0V136H70V152.033Z" fill="#3EB1C8"/>
<path d="M256 136V218.285C256 220.878 253.87 223 251.267 223H238.253V170.659C238.253 169.48 238.253 168.301 238.253 166.884C238.253 165.469 238.489 164.057 238.489 162.64C238.489 162.64 223.581 185.276 219.559 190.697C218.849 191.404 218.139 192.111 217.192 192.583C216.482 192.819 215.772 192.819 215.065 192.819H212.699C211.989 192.819 211.276 192.819 210.569 192.583C209.625 192.111 208.676 191.64 208.202 190.697C204.18 185.274 189.272 162.404 189.272 162.404C189.272 163.819 189.511 165.233 189.511 166.648C189.511 168.063 189.511 169.242 189.511 170.42V222.762H172V136H187.85C188.56 136 189.269 136 189.743 136C190.216 136 190.689 136.236 191.163 136.472C191.636 136.707 192.109 136.943 192.346 137.412C192.819 137.884 213.406 168.063 214.116 169.713C214.589 167.827 235.413 137.884 235.886 137.412C236.123 136.943 236.596 136.705 237.069 136.472C237.543 136.233 238.016 136.233 238.489 136C238.962 136 239.672 136 240.385 136H256Z" fill="#3EB1C8"/>
<path d="M70 49.0325H45.1536V120H24.6075V49.0325H0V37.7154C0 35.122 2.15017 33 4.77816 33H70V49.0325Z" fill="#007FA3"/>
<path d="M114.321 81.561V101.837H141.73V116.691H114.321V137.439L94 153V70.7154C94 68.122 96.1266 66 98.7257 66H150V81.561H114.321V81.561Z" fill="#007FA3"/>
<path d="M256 120H235.65C234.467 120 233.284 119.764 232.337 119.057C231.627 118.35 230.918 117.642 230.444 116.699L212.934 86.2846C212.697 86.9919 212.224 87.935 211.99 88.6423L195.663 116.935C195.189 117.642 194.479 118.585 193.77 119.057C193.06 119.764 191.877 120 190.93 120H172L200.159 75.2032L172.944 33H193.294C194.241 33 195.187 33 196.134 33.4715C196.843 33.9431 197.317 34.4146 197.79 35.122L215.064 64.5935C215.3 64.1219 215.537 63.6504 215.774 63.1789L216.72 61.7642L231.862 35.8293C232.335 35.122 232.808 34.4146 233.755 33.9431C234.467 33.4715 235.177 33.2358 236.121 33.2358H255.524L228.078 74.4959L256 120Z" fill="#007FA3"/>
<path d="M114.321 120V137.898H141.73V152.734H114.321V173.457H150V184.29C150 186.881 147.876 189 145.274 189H94V135.543L114.321 120Z" fill="#3EB1C8"/>
</svg>
